<?xml version="1.0" encoding="UTF-8" standalone="no"?>
<svg
   xmlns:dc="http://purl.org/dc/elements/1.1/"
   xmlns:cc="http://creativecommons.org/ns#"
   xmlns:rdf="http://www.w3.org/1999/02/22-rdf-syntax-ns#"
   xmlns:svg="http://www.w3.org/2000/svg"
   xmlns="http://www.w3.org/2000/svg"
   width="5.688889in"
   height="5.688889in"
   viewBox="0 0 409.50563 409.50563"
   id="svg4737"
   version="1.1">
  <metadata
     id="metadata4744">
    <rdf:RDF>
      <cc:Work
         rdf:about="">
        <dc:format>image/svg+xml</dc:format>
        <dc:type
           rdf:resource="http://purl.org/dc/dcmitype/StillImage" />
        <dc:title></dc:title>
      </cc:Work>
    </rdf:RDF>
  </metadata>
  <defs
     id="defs4742" />
  <path
     id="Warrior"
     d="M 162.72649,364.56796 C 113.90175,333.11521 40.522659,252.20986 42.682162,99.904965 c 0.683842,-0.58787 22.90272,-4.64693 22.90272,-4.64693 41.190508,-9.00992 69.052088,-21.40707 85.580278,-32.88042 7.09836,-4.59094 37.21142,-29.61718 40.94256,-32.78445 2.37945,-2.50342 4.50296,-5.67069 4.50296,-5.67069 0,0 16.57618,0.072 16.57618,0.072 0,0 1.14774,2.10751 4.43098,5.58271 0,0 36.4556,31.2088 49.52058,38.23918 23.08668,13.40491 49.62457,21.39907 75.58258,27.12975 0,0 21.12313,4.08706 24.17443,4.81089 2.41944,188.176635 -109.05486,257.260705 -119.35249,264.391065 -14.2967,9.56579 -25.79405,11.36538 -42.69016,20.76321 -16.79613,-8.79797 -25.09421,-9.99769 -42.12629,-20.34331 z m -42.22227,-90.09923 c 29.0613,45.05761 58.92242,62.78553 84.24858,74.43884 32.19258,-12.98501 64.98502,-40.7786 88.64757,-81.23727 24.17843,-42.14629 36.92349,-83.18083 39.17897,-141.33542 -56.54297,-14.86058 -76.23843,-23.75853 -127.5706,-62.633575 -47.64501,35.47583 -67.04054,47.473065 -128.226439,62.669565 4.59894,72.38331 22.698768,114.9335 43.721919,148.09786 z M 100.15691,143.78685 c 0.27994,-0.23194 39.59088,-6.87441 43.51797,-8.54603 28.72138,-6.10659 50.22443,-28.30547 51.40815,-28.86534 0,0 0.072,204.35289 0.072,204.35289 -16.52819,-10.52957 -92.24674,-60.11814 -94.99811,-166.94152 z m 163.49032,-8.83796 c 29.52119,6.98239 43.01808,7.33431 45.68947,8.79797 2.39944,102.24443 -80.98933,160.78294 -94.63419,166.83355 0,0 0.11997,-203.62507 0.11997,-203.62507 17.06007,14.89257 32.62048,22.91472 48.82475,27.99355 z"
     style="fill:#4ca0ff;fill-opacity:1;stroke:none;stroke-width:1" />
</svg>
