<?xml version="1.0" encoding="UTF-8" standalone="no"?>
<svg
   xmlns:dc="http://purl.org/dc/elements/1.1/"
   xmlns:cc="http://creativecommons.org/ns#"
   xmlns:rdf="http://www.w3.org/1999/02/22-rdf-syntax-ns#"
   xmlns:svg="http://www.w3.org/2000/svg"
   xmlns="http://www.w3.org/2000/svg"
   version="1.1"
   id="svg4146"
   viewBox="0 0 409.50561 409.50561"
   height="512"
   width="512">
  <metadata
     id="metadata4153">
    <rdf:RDF>
      <cc:Work
         rdf:about="">
        <dc:format>image/svg+xml</dc:format>
        <dc:type
           rdf:resource="http://purl.org/dc/dcmitype/StillImage" />
        <dc:title></dc:title>
      </cc:Work>
    </rdf:RDF>
  </metadata>
  <defs
     id="defs4151" />
  <path
     style="fill:#eb4b4b;fill-opacity:1;stroke:none;stroke-width:1"
     d="m 205.90454,8.6979952 c 0,0 36.4156,24.6942998 36.4156,24.6942998 0,0 -18.27178,15.79636 -18.27178,15.79636 0,0 -0.1,28.39346 -0.1,28.39346 0,0 15.41645,-8.19811 16.79613,-8.44206 0,0 62.43761,1.24372 62.43761,1.24372 0,0 36.73953,84.780455 36.73953,84.780455 0,0 -16.79613,0.024 -16.79613,0.024 0,0 -40.86258,-55.867125 -40.86258,-55.867125 0,0 -48.35286,5.998615 -48.35286,5.998615 0,0 -29.10529,23.0027 -29.10529,23.0027 0,0 -27.66562,-22.21488 -29.24526,-22.86673 0,0 -48.38884,-6.278555 -48.38884,-6.278555 0,0 -30.90088,55.987095 -30.90088,55.987095 0,0 -17.088062,0 -17.088062,0 0,0 27.521652,-84.816455 27.521652,-84.816455 0,0 62.42162,-1.41967 62.42162,-1.41967 0,0 18.03184,9.05392 18.03184,9.05392 0,0 0,-29.12129 0,-29.12129 0,0 -18.2238,-15.47643 -18.2238,-15.47643 0,0 36.97148,-24.6863098 36.97148,-24.6863098 z M 190.908,155.56414 c 0,0 5.84665,0 5.84665,0 0,0 0,244.84358 0,244.84358 0,0 -37.99125,-91.53492 -37.99125,-91.53492 0,0 0,-180.50239 0,-180.50239 0,0 32.1446,27.19373 32.1446,27.19373 z m 62.28564,153.11671 c 0,0 -38.01924,91.67887 -38.01924,91.67887 0,0 -0.024,-244.79558 -0.024,-244.79558 0,0 5.35076,-0.048 5.35076,-0.048 0,0 32.64048,-27.61763 32.64048,-27.61763 0,0 0.052,180.78233 0.052,180.78233 z"
     id="Assassin" />
</svg>
