<?xml version="1.0" encoding="UTF-8" standalone="no"?>
<svg
   xmlns:dc="http://purl.org/dc/elements/1.1/"
   xmlns:cc="http://creativecommons.org/ns#"
   xmlns:rdf="http://www.w3.org/1999/02/22-rdf-syntax-ns#"
   xmlns:svg="http://www.w3.org/2000/svg"
   xmlns="http://www.w3.org/2000/svg"
   width="512"
   height="512"
   viewBox="0 0 409.50561 409.50561"
   id="svg4703"
   version="1.1">
  <metadata
     id="metadata4710">
    <rdf:RDF>
      <cc:Work
         rdf:about="">
        <dc:format>image/svg+xml</dc:format>
        <dc:type
           rdf:resource="http://purl.org/dc/dcmitype/StillImage" />
        <dc:title></dc:title>
      </cc:Work>
    </rdf:RDF>
  </metadata>
  <defs
     id="defs4708" />
  <path
     id="Specialist"
     d="m 243.89578,166.86153 c 0,0 161.8387,37.69931 161.8387,37.69931 0,0 -161.89069,39.13498 -161.89069,39.13498 0,0 -39.05499,163.4783 -39.05499,163.4783 0,0 -37.07546,-162.93043 -37.07546,-162.93043 0,0 -163.1583899,-39.68285 -163.1583899,-39.68285 0,0 163.0584099,-37.69931 163.0584099,-37.69931 0,0 37.13944,-164.2821348 37.13944,-164.2821348 0,0 39.14298,164.2821348 39.14298,164.2821348 z m -90.87905,-30.369 c 0,0 -4.27502,15.89633 -4.27502,15.89633 0,0 -15.97231,4.73891 -15.97231,4.73891 0,0 -46.441299,-67.828375 -46.441299,-67.828375 0,0 66.688629,47.193135 66.688629,47.193135 z m 38.13921,24.54634 c -11.44136,3.99108 -21.63102,13.68884 -26.21396,24.91825 -3.97108,9.72576 -4.50296,21.97894 -1.23571,31.99263 5.67469,17.40799 22.1189,30.57295 40.64663,30.7929 6.85842,0.08 14.13674,-0.96777 20.39529,-3.9111 5.37477,-2.52741 10.04569,-6.13858 14.05676,-10.50158 7.63824,-8.29808 11.06545,-17.22403 11.55334,-28.37745 0,0 0.24794,-2.79936 0.24794,-2.79936 0,0 -0.22794,-2.39945 -0.22794,-2.39945 -0.8958,-13.30493 -6.44252,-24.53434 -17.23203,-32.74045 -3.55118,-2.70338 -7.01438,-4.82689 -11.19742,-6.42652 -6.5145,-2.48742 -13.85681,-3.35522 -20.79521,-2.71137 -3.95908,0.58386 -6.10659,0.80781 -9.99769,2.1635 z m -58.43453,97.85344 c 0,0 16.09629,4.74691 16.09629,4.74691 0,0 4.29901,15.99631 4.29901,15.99631 0,0 -66.700629,46.94518 -66.700629,46.94518 0,0 46.305329,-67.6884 46.305329,-67.6884 z m 127.31865,4.89887 c 0,0 15.5964,-4.95086 15.5964,-4.95086 0,0 46.31333,67.7084 46.31333,67.7084 0,0 -66.04478,-46.83321 -66.04478,-46.83321 0,0 4.13505,-15.92433 4.13505,-15.92433 z m 15.52042,-106.57543 c 0,0 -15.46843,-4.89887 -15.46843,-4.89887 0,0 -4.29901,-15.99631 -4.29901,-15.99631 0,0 66.3527,-47.141145 66.3527,-47.141145 0,0 -46.58526,68.036325 -46.58526,68.036325 z"
     style="fill:#c571ff;fill-opacity:1;stroke:none;stroke-width:1" />
</svg>
