<?xml version="1.0" encoding="UTF-8" standalone="no"?>
<svg
   xmlns:dc="http://purl.org/dc/elements/1.1/"
   xmlns:cc="http://creativecommons.org/ns#"
   xmlns:rdf="http://www.w3.org/1999/02/22-rdf-syntax-ns#"
   xmlns:svg="http://www.w3.org/2000/svg"
   xmlns="http://www.w3.org/2000/svg"
   width="5.688889in"
   height="5.688889in"
   viewBox="0 0 409.50563 409.50563"
   id="svg4720"
   version="1.1">
  <metadata
     id="metadata4727">
    <rdf:RDF>
      <cc:Work
         rdf:about="">
        <dc:format>image/svg+xml</dc:format>
        <dc:type
           rdf:resource="http://purl.org/dc/dcmitype/StillImage" />
        <dc:title></dc:title>
      </cc:Work>
    </rdf:RDF>
  </metadata>
  <defs
     id="defs4725" />
  <path
     id="Support"
     d="m 297.27548,104.084 c 0,0 17.16004,-19.775445 17.16004,-19.775445 0,0 10.76152,25.886045 10.76152,25.886045 0,0 -22.75875,87.6158 -22.75875,87.6158 0,0 -0.21595,68.42023 -0.21595,68.42023 0,0 -36.71954,25.1582 -36.71954,25.1582 0,0 24.7223,31.99263 24.7223,31.99263 0,0 -86.37209,58.73046 -86.37209,58.73046 0,0 -69.88389,-56.95087 -69.88389,-56.95087 0,0 27.44967,-32.24857 27.44967,-32.24857 0,0 -104.667871,-79.03378 -104.667871,-79.03378 0,0 0,-27.19374 0,-27.19374 0,0 33.736223,0 33.736223,0 0,0 50.680318,30.06507 50.680318,30.06507 0,0 1.82358,-34.79198 1.82358,-34.79198 0,0 -19.27556,-93.722395 -19.27556,-93.722395 0,0 12.43314,-22.54281 12.43314,-22.54281 0,0 24.65032,18.6877 24.65032,18.6877 0,0 16.76013,83.580735 16.76013,83.580735 0,0 10.79751,-1.59963 10.79751,-1.59963 0,0 0.50789,-112.594055 0.50789,-112.594055 0,0 11.19742,-26.31793 11.19742,-26.31793 0,0 20.94317,22.17489 20.94317,22.17489 0,0 3.63516,115.973275 3.63516,115.973275 0,0 10.32562,0.58386 10.32562,0.58386 0,0 10.75752,-89.799305 10.75752,-89.799305 0,0 17.16004,-18.97563 17.16004,-18.97563 0,0 13.96079,30.02908 13.96079,30.02908 0,0 -10.90549,79.725625 -10.90549,79.725625 0,0 10.3976,-0.10797 10.3976,-0.10797 0,0 20.93918,-62.96949 20.93918,-62.96949 z"
     style="fill:#02e9d9;fill-opacity:1;stroke:none;stroke-width:1" />
</svg>
